<svg id="Lager_1" data-name="Lager 1" xmlns="http://www.w3.org/2000/svg" viewBox="0 0 200 55.56"><defs><style>.cls-1{fill:#780000;}.cls-2{fill:#bbb0a3;}</style></defs><title>nordpartners-loga</title><path class="cls-1" d="M0,7l0.48,0H1.38L1.84,7q0.06,0.55.09,1.38c0,0.56,0,1,0,1.45a6.67,6.67,0,0,1,.8-1.12,6.14,6.14,0,0,1,1.15-1A6,6,0,0,1,5.44,6.9a5.87,5.87,0,0,1,1.88-.29,4.62,4.62,0,0,1,3.93,1.61,7.34,7.34,0,0,1,1.23,4.53v9.89l-0.51,0H11l-0.52,0V13.37a6.6,6.6,0,0,0-.81-3.75A2.81,2.81,0,0,0,7.19,8.48a4.86,4.86,0,0,0-2,.43,4.59,4.59,0,0,0-1.64,1.24,6,6,0,0,0-1.09,2A8.62,8.62,0,0,0,2,14.9v7.74l-0.51,0h-1L0,22.65V7Z"/><path class="cls-1" d="M26.15,23a7,7,0,0,1-3.07-.63,6.06,6.06,0,0,1-2.2-1.74A7.41,7.41,0,0,1,19.57,18a11.66,11.66,0,0,1-.43-3.23,11.66,11.66,0,0,1,.43-3.23A7.42,7.42,0,0,1,20.88,9a6.1,6.1,0,0,1,2.2-1.74,7.08,7.08,0,0,1,3.07-.63,7,7,0,0,1,3.06.63A6.14,6.14,0,0,1,31.39,9a7.62,7.62,0,0,1,1.32,2.61,11.29,11.29,0,0,1,.45,3.23A11.29,11.29,0,0,1,32.71,18a7.62,7.62,0,0,1-1.32,2.61,6.1,6.1,0,0,1-2.18,1.74A6.94,6.94,0,0,1,26.15,23Zm0-1.78a4.19,4.19,0,0,0,3.67-1.72A8,8,0,0,0,31,14.81a8,8,0,0,0-1.21-4.7,4.2,4.2,0,0,0-3.67-1.72,4.2,4.2,0,0,0-3.67,1.72,8,8,0,0,0-1.21,4.7,8,8,0,0,0,1.21,4.7A4.19,4.19,0,0,0,26.15,21.23Z"/><path class="cls-1" d="M40.13,7l0.48,0h0.91L42,7q0.06,0.55.09,1.31c0,0.5,0,1,0,1.37a5.56,5.56,0,0,1,1.72-1.92,4.93,4.93,0,0,1,2.92-.78h0.32l0.38,0a5.68,5.68,0,0,1,.09,1,4.88,4.88,0,0,1-.09,1l-0.38,0H46.77a4.42,4.42,0,0,0-3.35,1.32q-1.26,1.32-1.26,4.39v8l-0.51,0h-1l-0.52,0V7Z"/><path class="cls-1" d="M63.42,0.06a4.57,4.57,0,0,1,.52,0l0.49,0,0.51,0a4.43,4.43,0,0,1,.51,0V22.28a15.52,15.52,0,0,1-2.37.52,19.7,19.7,0,0,1-3,.21,12.15,12.15,0,0,1-3.16-.4,6.15,6.15,0,0,1-4.26-3.75,9.68,9.68,0,0,1-.63-3.72,10.93,10.93,0,0,1,.55-3.61A7.52,7.52,0,0,1,54.2,8.86a6.8,6.8,0,0,1,2.44-1.67,8.27,8.27,0,0,1,3.15-.58,12.15,12.15,0,0,1,2,.17,10.51,10.51,0,0,1,1.61.38V0.06Zm0,9a9.65,9.65,0,0,0-1.57-.45,9.51,9.51,0,0,0-2-.2,5.87,5.87,0,0,0-2.5.49,4.83,4.83,0,0,0-1.77,1.37,5.89,5.89,0,0,0-1.06,2.1,9.77,9.77,0,0,0-.35,2.7q0,3.2,1.52,4.65A6,6,0,0,0,60,21.2,16.41,16.41,0,0,0,62,21.09a9,9,0,0,0,1.44-.26V9.07Z"/><path class="cls-1" d="M73.31,0.06a4.43,4.43,0,0,1,.51,0l0.51,0,0.49,0a4.54,4.54,0,0,1,.52,0V19a3.37,3.37,0,0,0,.18,1.25,1.47,1.47,0,0,0,.46.64,1.33,1.33,0,0,0,.61.25,4.52,4.52,0,0,0,.61,0,5.65,5.65,0,0,0,.71,0A5,5,0,0,0,78.54,21a3.17,3.17,0,0,1,.21.8q0.06,0.43.09,0.8a4.33,4.33,0,0,1-1,.22,8.84,8.84,0,0,1-1,.06,6.09,6.09,0,0,1-1.29-.14,2.87,2.87,0,0,1-1.15-.52,2.69,2.69,0,0,1-.82-1,4.13,4.13,0,0,1-.31-1.73V0.06Z"/><path class="cls-1" d="M93,12.29a4,4,0,0,0-1-3,3.87,3.87,0,0,0-2.83-.94A13.73,13.73,0,0,0,85.14,9a2.9,2.9,0,0,1-.26-0.8,4.85,4.85,0,0,1-.11-1,13.4,13.4,0,0,1,2-.42,16.86,16.86,0,0,1,2.4-.17,6.43,6.43,0,0,1,4.42,1.31A5.27,5.27,0,0,1,95,12V22.37q-1.08.21-2.61,0.43a21.22,21.22,0,0,1-2.92.21A7.82,7.82,0,0,1,85,21.88a4.16,4.16,0,0,1-1.65-3.69,4.9,4.9,0,0,1,.48-2.2,4.62,4.62,0,0,1,1.32-1.63,5.86,5.86,0,0,1,2-1,9.51,9.51,0,0,1,2.6-.34c0.74,0,1.37,0,1.91.08L93,13.24v-1ZM93,15l-1.31-.14q-0.78-.08-1.49-0.08a6.29,6.29,0,0,0-3.56.86,2.8,2.8,0,0,0-1.26,2.46,3,3,0,0,0,.38,1.63,2.57,2.57,0,0,0,1,.94,4.22,4.22,0,0,0,1.35.43,10,10,0,0,0,1.47.11,16.35,16.35,0,0,0,1.78-.09C91.9,21.08,92.45,21,93,20.89V15Z"/><path class="cls-1" d="M102.57,7l0.48,0h0.91l0.46,0q0.06,0.55.09,1.38c0,0.56,0,1,0,1.45a6.68,6.68,0,0,1,.8-1.12,6.2,6.2,0,0,1,1.15-1A6.05,6.05,0,0,1,108,6.9a5.86,5.86,0,0,1,1.87-.29,4.62,4.62,0,0,1,3.93,1.61A7.34,7.34,0,0,1,115,12.75v9.89l-0.51,0h-1l-0.52,0V13.37a6.6,6.6,0,0,0-.81-3.75,2.81,2.81,0,0,0-2.44-1.14,4.86,4.86,0,0,0-2,.43,4.59,4.59,0,0,0-1.64,1.24,6,6,0,0,0-1.09,2,8.62,8.62,0,0,0-.4,2.73v7.74l-0.51,0h-1l-0.52,0V7Z"/><path class="cls-1" d="M133.14,0.06a4.52,4.52,0,0,1,.52,0l0.49,0,0.51,0a4.38,4.38,0,0,1,.51,0V22.28a15.43,15.43,0,0,1-2.37.52,19.66,19.66,0,0,1-2.95.21,12.18,12.18,0,0,1-3.17-.4,6.15,6.15,0,0,1-4.25-3.75,9.7,9.7,0,0,1-.63-3.72,10.91,10.91,0,0,1,.55-3.61,7.52,7.52,0,0,1,1.57-2.67,6.78,6.78,0,0,1,2.44-1.67,8.26,8.26,0,0,1,3.15-.58,12.2,12.2,0,0,1,2,.17,10.58,10.58,0,0,1,1.61.38V0.06Zm0,9a9.67,9.67,0,0,0-1.57-.45,9.51,9.51,0,0,0-2-.2,5.88,5.88,0,0,0-2.51.49,4.84,4.84,0,0,0-1.77,1.37,6,6,0,0,0-1.06,2.1,9.82,9.82,0,0,0-.35,2.7q0,3.2,1.52,4.65a6,6,0,0,0,4.32,1.46,16.44,16.44,0,0,0,1.94-.11,9.11,9.11,0,0,0,1.45-.26V9.07Z"/><path class="cls-1" d="M144.32,15.12a6.37,6.37,0,0,0,1.45,4.61,5.81,5.81,0,0,0,4.33,1.47,11,11,0,0,0,2.17-.2,14.17,14.17,0,0,0,2-.54,3.71,3.71,0,0,1,.25.83,8.7,8.7,0,0,1,.12.89,9,9,0,0,1-2.09.61,14.93,14.93,0,0,1-2.61.21,9.1,9.1,0,0,1-3.49-.6,6.27,6.27,0,0,1-2.4-1.67,6.81,6.81,0,0,1-1.38-2.56,11.34,11.34,0,0,1-.45-3.27,12.1,12.1,0,0,1,.42-3.23A7.84,7.84,0,0,1,143.85,9,5.81,5.81,0,0,1,146,7.25a7.17,7.17,0,0,1,3.16-.64,6.77,6.77,0,0,1,2.73.52,5.63,5.63,0,0,1,2,1.46,6.34,6.34,0,0,1,1.23,2.24,9.34,9.34,0,0,1,.41,2.84c0,0.19,0,.42,0,0.71s0,0.53,0,.74H144.32Zm9.22-1.69a7.34,7.34,0,0,0-.25-1.87,4.62,4.62,0,0,0-.77-1.62,3.89,3.89,0,0,0-1.35-1.12,4.88,4.88,0,0,0-5.35.89,6.36,6.36,0,0,0-1.45,3.72h9.16Z"/><path class="cls-1" d="M162.48,7l0.48,0h0.91l0.46,0c0,0.37.07,0.8,0.09,1.31s0,1,0,1.37a5.56,5.56,0,0,1,1.72-1.92,4.92,4.92,0,0,1,2.92-.78h0.32l0.38,0a5.73,5.73,0,0,1,.09,1,4.92,4.92,0,0,1-.09,1l-0.38,0h-0.3a4.43,4.43,0,0,0-3.35,1.32q-1.26,1.32-1.26,4.39v8l-0.51,0h-1l-0.52,0V7Z"/><path class="cls-2" d="M73.31,32.57l0.46,0H74.7l0.46,0,0.18,2.15A6,6,0,0,1,77.2,33a5.82,5.82,0,0,1,3.15-.77,7.57,7.57,0,0,1,2.64.44A5.07,5.07,0,0,1,85,34a6.74,6.74,0,0,1,1.32,2.4,11.14,11.14,0,0,1,.48,3.47,11.19,11.19,0,0,1-.55,3.64,7.43,7.43,0,0,1-1.61,2.73A7,7,0,0,1,82.06,48a9.75,9.75,0,0,1-3.55.6,11.54,11.54,0,0,1-1.6-.12,8.19,8.19,0,0,1-1.57-.37v7.37a4.52,4.52,0,0,1-.52,0l-0.49,0-0.51,0a4.38,4.38,0,0,1-.51,0V32.57Zm2,13.67a7.84,7.84,0,0,0,1.46.42,11.66,11.66,0,0,0,2,.14,6.7,6.7,0,0,0,2.27-.38A4.84,4.84,0,0,0,83,45.2a5.88,5.88,0,0,0,1.26-2.11A9,9,0,0,0,84.68,40a7.93,7.93,0,0,0-1.06-4.43A3.8,3.8,0,0,0,80.2,34a5.9,5.9,0,0,0-1.6.25A4.35,4.35,0,0,0,77,35.1a4.72,4.72,0,0,0-1.2,1.57,5.52,5.52,0,0,0-.48,2.44v7.13Z"/><path class="cls-2" d="M102.51,37.89a4,4,0,0,0-1-3A3.87,3.87,0,0,0,98.73,34a13.73,13.73,0,0,0-4.06.59,2.84,2.84,0,0,1-.26-0.8,4.79,4.79,0,0,1-.11-1,13.63,13.63,0,0,1,2-.42,17,17,0,0,1,2.4-.17,6.43,6.43,0,0,1,4.42,1.31,5.27,5.27,0,0,1,1.45,4.1V48q-1.08.21-2.61,0.43a21.37,21.37,0,0,1-2.92.21,7.82,7.82,0,0,1-4.5-1.14,4.16,4.16,0,0,1-1.64-3.69,4.9,4.9,0,0,1,.48-2.2A4.64,4.64,0,0,1,94.65,40a5.86,5.86,0,0,1,2-1,9.51,9.51,0,0,1,2.6-.34c0.74,0,1.37,0,1.91.08l1.32,0.14v-1Zm0,2.73-1.31-.14q-0.79-.07-1.49-0.08a6.3,6.3,0,0,0-3.56.86,2.8,2.8,0,0,0-1.26,2.46,3,3,0,0,0,.38,1.63,2.58,2.58,0,0,0,1,.94,4.24,4.24,0,0,0,1.35.43,10.18,10.18,0,0,0,1.48.11,16.08,16.08,0,0,0,1.78-.09q0.83-.09,1.63-0.25V40.62Z"/><path class="cls-2" d="M112.09,32.57l0.48,0h0.91l0.46,0q0.06,0.55.09,1.31t0,1.37a5.56,5.56,0,0,1,1.72-1.92,4.93,4.93,0,0,1,2.92-.78H119l0.38,0a5.72,5.72,0,0,1,.09,1,4.91,4.91,0,0,1-.09,1l-0.38,0h-0.29a4.41,4.41,0,0,0-3.35,1.32q-1.26,1.32-1.26,4.4v8l-0.51,0h-1l-0.52,0V32.57Z"/><path class="cls-2" d="M126,34.29h-2.67a2.64,2.64,0,0,1,0-.4c0-.16,0-0.33,0-0.49s0-.32,0-0.46a2.55,2.55,0,0,1,0-.37H126V29.62l1.9-1.88H128v4.82h4.24a3.44,3.44,0,0,1,0,.37c0,0.14,0,.3,0,0.46s0,0.33,0,.49a3.45,3.45,0,0,1,0,.4H128v10.2a3,3,0,0,0,.2,1.21,1.75,1.75,0,0,0,.52.69,1.69,1.69,0,0,0,.74.32,4.76,4.76,0,0,0,.85.08,5.77,5.77,0,0,0,1.88-.28,10.91,10.91,0,0,1,.31,1.72,8.84,8.84,0,0,1-2.58.34,4.2,4.2,0,0,1-2.84-.94A3.83,3.83,0,0,1,126,44.59V34.29Z"/><path class="cls-2" d="M138.18,32.57l0.48,0h0.91l0.46,0c0,0.37.07,0.83,0.09,1.38s0,1,0,1.45a6.75,6.75,0,0,1,.8-1.12,6.17,6.17,0,0,1,1.15-1,6.09,6.09,0,0,1,1.52-.75,5.85,5.85,0,0,1,1.88-.29,4.62,4.62,0,0,1,3.93,1.61,7.33,7.33,0,0,1,1.23,4.53v9.89l-0.51,0h-1l-0.53,0V39a6.59,6.59,0,0,0-.81-3.75,2.8,2.8,0,0,0-2.44-1.14,4.86,4.86,0,0,0-2,.43,4.6,4.6,0,0,0-1.64,1.25,6,6,0,0,0-1.09,2,8.59,8.59,0,0,0-.4,2.73v7.74l-0.51,0h-1l-0.52,0V32.57Z"/><path class="cls-2" d="M159.5,40.71a6.37,6.37,0,0,0,1.45,4.61,5.8,5.8,0,0,0,4.33,1.47,10.86,10.86,0,0,0,2.17-.2,14.11,14.11,0,0,0,2-.54,3.78,3.78,0,0,1,.25.83c0.06,0.33.1,0.62,0.12,0.89a9,9,0,0,1-2.09.61,15,15,0,0,1-2.61.21,9.09,9.09,0,0,1-3.49-.6,6.24,6.24,0,0,1-2.4-1.67,6.78,6.78,0,0,1-1.38-2.56,11.33,11.33,0,0,1-.45-3.27,12.09,12.09,0,0,1,.42-3.23A7.87,7.87,0,0,1,159,34.63a5.82,5.82,0,0,1,2.17-1.78,7.15,7.15,0,0,1,3.16-.64,6.76,6.76,0,0,1,2.73.52,5.61,5.61,0,0,1,2,1.46,6.32,6.32,0,0,1,1.23,2.24,9.33,9.33,0,0,1,.41,2.84c0,0.19,0,.42,0,0.71s0,0.53,0,.74H159.5ZM168.72,39a7.3,7.3,0,0,0-.25-1.87,4.65,4.65,0,0,0-.77-1.62,3.9,3.9,0,0,0-1.35-1.12,4.88,4.88,0,0,0-5.35.89A6.37,6.37,0,0,0,159.56,39h9.16Z"/><path class="cls-2" d="M177.63,32.57l0.48,0H179l0.46,0c0,0.37.07,0.8,0.09,1.31s0,1,0,1.37a5.55,5.55,0,0,1,1.72-1.92,4.94,4.94,0,0,1,2.92-.78h0.32l0.39,0a5.74,5.74,0,0,1,.09,1,4.92,4.92,0,0,1-.09,1l-0.39,0h-0.29a4.41,4.41,0,0,0-3.35,1.32q-1.26,1.32-1.26,4.4v8l-0.51,0h-1l-0.52,0V32.57Z"/><path class="cls-2" d="M190.07,46.09a9.15,9.15,0,0,0,1.75.48,11.28,11.28,0,0,0,2.06.2A4.73,4.73,0,0,0,196.8,46a2.44,2.44,0,0,0,1.08-2,2.6,2.6,0,0,0-.32-1.37,2.92,2.92,0,0,0-.86-0.91,5,5,0,0,0-1.21-.6l-1.38-.48q-0.77-.25-1.52-0.55a5.19,5.19,0,0,1-1.33-.78A3.41,3.41,0,0,1,190,36.41a3.81,3.81,0,0,1,1.37-3,6.4,6.4,0,0,1,4.22-1.17,12.15,12.15,0,0,1,2.32.21,9.76,9.76,0,0,1,1.74.46,12.57,12.57,0,0,1-.43,1.75,16.22,16.22,0,0,0-1.64-.43,10,10,0,0,0-2.08-.21,4.14,4.14,0,0,0-2.66.66,2.16,2.16,0,0,0-.79,1.74,1.85,1.85,0,0,0,.26,1,2.33,2.33,0,0,0,.71.71,5.25,5.25,0,0,0,1,.51c0.38,0.14.78,0.28,1.21,0.4s1.11,0.38,1.67.6a6.08,6.08,0,0,1,1.53.85,4.16,4.16,0,0,1,1.14,1.32,4.07,4.07,0,0,1,.45,2,4.52,4.52,0,0,1-.45,2,4.39,4.39,0,0,1-1.24,1.53,5.77,5.77,0,0,1-1.9,1,8.29,8.29,0,0,1-2.43.34,16.78,16.78,0,0,1-2.63-.18,7.89,7.89,0,0,1-1.86-.49A9.2,9.2,0,0,1,190.07,46.09Z"/></svg>