<svg id="Layer_1" data-name="Layer 1" xmlns="http://www.w3.org/2000/svg" viewBox="0 0 200 30.92"><title>styrelse_institutet</title><path d="M0,29.19L1,27l0.22-.47a0.61,0.61,0,0,1,.22.19,1.3,1.3,0,0,0,.84,1.06,6.57,6.57,0,0,0,4.81.67,2,2,0,0,0,1.22-.8,0.93,0.93,0,0,0-.49-1.51,13.17,13.17,0,0,0-1.72-.31,19,19,0,0,1-3.83-.62C0,24.34-.14,21.22,1.54,19.82A5.43,5.43,0,0,1,4.8,18.69a10.15,10.15,0,0,1,4.71.93,1.22,1.22,0,0,0,1.29.14,0.57,0.57,0,0,1,.23.1L9.63,22.45a3.87,3.87,0,0,0-.69-0.77,6.54,6.54,0,0,0-1.49-.74A5.78,5.78,0,0,0,4,20.79,2.16,2.16,0,0,0,3,21.4a0.88,0.88,0,0,0,.43,1.52,20.27,20.27,0,0,0,2.07.34,31.46,31.46,0,0,1,3.16.54A3,3,0,0,1,11,26.69a3.22,3.22,0,0,1-1.88,3.09,7.38,7.38,0,0,1-3.68.75,10.39,10.39,0,0,1-4.12-1,0.92,0.92,0,0,0-1.07-.12A0.47,0.47,0,0,1,0,29.37V29.19Z"/><path d="M189.52,30.92a0.79,0.79,0,0,0-.9-0.59c-2.77,0-5.53,0-8.3.06l-0.32,0a0.72,0.72,0,0,1,.18-0.26,0.65,0.65,0,0,0,.4-0.76q0-3.64,0-7.27a0.72,0.72,0,0,0-.43-0.83,0.72,0.72,0,0,1-.15-0.29h8.49a0.6,0.6,0,0,0,.65-0.38,1,1,0,0,1,.24-0.23v2.79c-0.41-.79-1.12-0.52-1.72-0.53-1.43,0-2.87,0-4.3,0l-0.49,0v2.1h2.74c0.22,0,.43,0,0.65,0a0.66,0.66,0,0,0,.71-0.36,1,1,0,0,1,.26-0.22v2.7l-0.09.08c-0.26-.78-0.88-0.61-1.43-0.62H183.3l-0.43,0v2.35h5.7a0.77,0.77,0,0,0,.85-0.43,0.47,0.47,0,0,1,.2-0.12v2.79h-0.09Z"/><path d="M85.5,30.92a0.66,0.66,0,0,0-.82-0.59l-8.26.05-0.34,0a0.7,0.7,0,0,1,.16-0.28,0.66,0.66,0,0,0,.39-0.73q0-3.66,0-7.31a0.68,0.68,0,0,0-.39-0.77,0.89,0.89,0,0,1-.19-0.32H79.7c1.56,0,3.13,0,4.69,0a0.7,0.7,0,0,0,.82-0.45,0.55,0.55,0,0,1,.19-0.12v2.85c-0.47-.9-1.19-0.6-1.82-0.61-1.3,0-2.61,0-3.91,0H78.92v2.13h0.8c0.83,0,1.66,0,2.5,0A0.71,0.71,0,0,0,83,24.27a0.55,0.55,0,0,1,.2-0.11v2.63l-0.08.08a1,1,0,0,0-1.29-.58h-3v2.38h5.7a0.69,0.69,0,0,0,.8-0.41,0.44,0.44,0,0,1,.19-0.12,0.74,0.74,0,0,1,.12.27c0,0.83,0,1.66-.07,2.49H85.5Z"/><path d="M54,30.92a0.64,0.64,0,0,0-.74-0.59l-8.22,0c-0.16,0-.32,0-0.6,0a2.1,2.1,0,0,0,.3-0.26,1.34,1.34,0,0,0,.35-0.57c0-2.54,0-5.08,0-7.62A2.39,2.39,0,0,0,44.59,21a1.6,1.6,0,0,1,.34-0.06h7.79a0.78,0.78,0,0,0,1-.49,0.36,0.36,0,0,1,.16,0v2.73a1.18,1.18,0,0,0-1.27-.54q-2.39,0-4.77,0c-0.38,0-.5.11-0.48,0.49s0,1.06,0,1.64h1.89c0.5,0,1,0,1.51,0a0.67,0.67,0,0,0,.76-0.41,0.58,0.58,0,0,1,.2-0.14v2.67a1.16,1.16,0,0,0-1.27-.54c-0.92,0-1.84,0-2.75,0a0.29,0.29,0,0,0-.36.37c0,0.64,0,1.29,0,2H53a0.76,0.76,0,0,0,.87-0.45,0.37,0.37,0,0,1,.16-0.09v2.78H54Z"/><path d="M64.32,30.92a0.59,0.59,0,0,0-.73-0.58l-7.48,0h-0.5a0.61,0.61,0,0,1,.08-0.25,0.82,0.82,0,0,0,.45-1q0-3.5,0-7a0.76,0.76,0,0,0-.44-0.92A0.55,0.55,0,0,1,55.62,21H59a0.54,0.54,0,0,1-.09.22,0.84,0.84,0,0,0-.49,1c0,2,0,4,0,5.93,0,0.17,0,.34,0,0.54l0.46,0h4.52a0.74,0.74,0,0,0,.89-0.47,0.58,0.58,0,0,1,.21-0.1v2.81H64.32Z"/><path d="M94.46,30.25a10.79,10.79,0,0,1-4.7-1,4.59,4.59,0,0,1-1.92-1.74,2.06,2.06,0,0,1,.64-3,0.78,0.78,0,0,0,.39-0.73,2,2,0,0,0-.42-1.46A1.73,1.73,0,0,1,88.57,20a0.92,0.92,0,0,0,.21-0.57c0-1.08-.06-2.17-0.09-3.25a1.17,1.17,0,0,0-.3-0.86,1.76,1.76,0,0,1,0-2.47,0.81,0.81,0,0,0-.11-1.37,2.57,2.57,0,0,1-.94-1.5,1.8,1.8,0,0,1,.31-1.63A13.85,13.85,0,0,1,89.16,6.8a6.3,6.3,0,0,1,2.63-1.09,12.18,12.18,0,0,1,5.24,0A6.44,6.44,0,0,1,100.2,7.1a12,12,0,0,1,1.11,1.18,2.17,2.17,0,0,1-.51,3,1.38,1.38,0,0,0-.34,1.2,0.46,0.46,0,0,0,.35.17,2,2,0,0,1,1.88.46,0.57,0.57,0,0,0,.44.06,4.66,4.66,0,0,0,.92-0.34,0.92,0.92,0,0,0,.32-0.39c0.08-.15.09-0.33,0.17-0.48a1.13,1.13,0,0,1,1.79-.46,0.55,0.55,0,0,0,.67,0c1.85-1,3.67-2,5.56-2.87,2.14-1,4.32-1.91,6.51-2.77s4.67-1.81,7-2.61A59.65,59.65,0,0,1,135,.81,12.66,12.66,0,0,1,137.43.5a23.72,23.72,0,0,0,2.79-.5,1.9,1.9,0,0,1,2.05,2.12,1,1,0,0,1-.27.52,3.27,3.27,0,0,1-1.87,1,0.8,0.8,0,0,0-.25.15c-1.21.67-2.39,1.42-3.65,2-2.13.94-4.32,1.76-6.49,2.6-1.73.67-3.47,1.33-5.22,2s-3.35,1.17-5,1.68c-1.41.43-2.84,0.78-4.27,1.12-1.87.44-3.74,0.83-5.62,1.23-0.5.11-1,.17-1.52,0.24a0.66,0.66,0,0,0-.58.41,1.29,1.29,0,0,1-2.1.61,0.69,0.69,0,0,0-.42,0,1.54,1.54,0,0,0-.36.12,1.57,1.57,0,0,0-1.09,1A1.69,1.69,0,0,1,102,17.93a6,6,0,0,0-1.31.46,0.21,0.21,0,0,0-.09.08,2.91,2.91,0,0,0,.2,1.56,1.46,1.46,0,0,1,.22,2,2.79,2.79,0,0,0-.37,1.83,0.9,0.9,0,0,0,.43.85c1.41,1,.78,2.66-0.09,3.51a8.21,8.21,0,0,1-5.71,2Z"/><path d="M15.45,22.62c-0.89,0-1.78,0-2.66,0a2.47,2.47,0,0,0-.85.48V20.37a0.7,0.7,0,0,1,.22.18,0.68,0.68,0,0,0,.77.4h7.31a0.78,0.78,0,0,0,1-.49,0.51,0.51,0,0,1,.21,0l0,0.56h4.17l0,0.13a1.61,1.61,0,0,1-.24.18,0.46,0.46,0,0,0-.21.76l1.66,2.35c0.58-.86,1.13-1.65,1.66-2.46,0.19-.29,0-0.47-0.23-0.64A3.11,3.11,0,0,1,28,21h4.15a0.53,0.53,0,0,1-.1.2,5.11,5.11,0,0,0-2,2.07c-0.68.88-1.31,1.8-1.94,2.71a1.14,1.14,0,0,0-.18.59c0,0.93,0,1.86,0,2.8,0,0.46,0,.46.56,1H25.07a0.23,0.23,0,0,1,0-.07,1.23,1.23,0,0,0,.52-1.39,11.76,11.76,0,0,1,0-1.5,2.61,2.61,0,0,0-.65-2c-0.9-1.13-1.71-2.33-2.59-3.47a4.81,4.81,0,0,0-.79-0.67l-0.12.08-0.09,1.85A1.16,1.16,0,0,0,20,22.59H17.79c0,0.75,0,1.43,0,2.12,0,1.52,0,3,0,4.56a0.8,0.8,0,0,0,.53.94,4.43,4.43,0,0,1-1.61.12c-0.56,0-1.12,0-1.77,0A2.88,2.88,0,0,0,15.2,30a1.19,1.19,0,0,0,.3-0.51c0-2.25,0-4.5,0-6.75A0.9,0.9,0,0,0,15.45,22.62Z"/><path d="M112.66,24.24c0,0.29,0,.59,0,0.88,0,1.42,0,2.84,0,4.26a2.91,2.91,0,0,0,.4.92h-3a0.59,0.59,0,0,1,.16-0.23,0.62,0.62,0,0,0,.37-0.69q0-3.66,0-7.31a0.7,0.7,0,0,0-.43-0.83A0.64,0.64,0,0,1,110.1,21h3.68a0.73,0.73,0,0,1-.15.29c-0.39.2-.24,0.44-0.06,0.66s0.5,0.51.75,0.77l4,4L118.66,27c0-.85,0-1.62,0-2.39s0-1.66,0-2.5a0.69,0.69,0,0,0-.42-0.84A0.65,0.65,0,0,1,118.1,21h3.23a1,1,0,0,1-.22.29,0.66,0.66,0,0,0-.39.7c0,2.48,0,5,0,7.44a2.65,2.65,0,0,0,.43.93h-3.23a0.27,0.27,0,0,1,0-.11c0.45-.43.45-0.43,0-0.89l-4.24-4.27-0.87-.86Z"/><path d="M32.66,20.94c1.78,0,3.46,0,5.13,0a19.7,19.7,0,0,1,3,.17,2.58,2.58,0,0,1,1.57,4.11,3.14,3.14,0,0,1-1.61,1l-0.61.18c1.19,1.25,1.77,2.91,3.35,3.91h-4c0.51-.63.51-0.63,0-1.33s-1-1.48-1.54-2.22a0.59,0.59,0,0,0-.35-0.26c-0.68,0-1.37,0-2.1,0,0,0.69,0,1.36,0,2a5.82,5.82,0,0,1,0,.73A1.09,1.09,0,0,0,36,30.32H32.73a0.43,0.43,0,0,1,.06-0.21,0.78,0.78,0,0,0,.45-0.92q0-3.57,0-7.14a0.7,0.7,0,0,0-.42-0.8A0.84,0.84,0,0,1,32.66,20.94Zm2.84,3.77c1.47,0,2.85,0,4.23,0a0.9,0.9,0,0,0,.83-1,0.88,0.88,0,0,0-.82-1c-1.33-.07-2.66-0.09-4-0.11a0.32,0.32,0,0,0-.24.21C35.49,23.48,35.5,24.12,35.5,24.71Z"/><path d="M132,21.82L130.78,24a1.6,1.6,0,0,0-1.3-1.12A5.57,5.57,0,0,0,126,22.6a2.29,2.29,0,0,0-.89.48,0.66,0.66,0,0,0,.3,1.19,16,16,0,0,0,2,.27,11.27,11.27,0,0,1,3.07.51,2.49,2.49,0,0,1,1.71,2.12A2.51,2.51,0,0,1,131,29.65a5.09,5.09,0,0,1-2.6.85,10.38,10.38,0,0,1-4.66-.7,4.54,4.54,0,0,0-1-.14l0.92-2.21c1.09,1.33,2.57,1.36,4,1.39a5.43,5.43,0,0,0,1.59-.27,0.87,0.87,0,0,0,.72-0.94,0.8,0.8,0,0,0-.81-0.69c-1.07-.15-2.15-0.25-3.23-0.38a4,4,0,0,1-2.13-.68,2.71,2.71,0,0,1,.31-4.34,5.47,5.47,0,0,1,3.92-.74,18.93,18.93,0,0,1,2.85.86,0.82,0.82,0,0,0,.91.07A0.53,0.53,0,0,1,132,21.82Z"/><path d="M74.57,21.81L73.35,24a2,2,0,0,0-1.64-1.22,5.12,5.12,0,0,0-3.47-.08,1.73,1.73,0,0,0-.61.38,0.67,0.67,0,0,0,.31,1.19,16.78,16.78,0,0,0,2,.28A11.11,11.11,0,0,1,73,25a2.56,2.56,0,0,1,.52,4.6,5.18,5.18,0,0,1-2.59.85,10,10,0,0,1-4.7-.72,4.63,4.63,0,0,0-.94-0.16l0.9-2.18h0.13a1.5,1.5,0,0,0,1.23,1,6.8,6.8,0,0,0,4,.22,1.85,1.85,0,0,0,.71-0.37,0.69,0.69,0,0,0-.19-1.22,8.69,8.69,0,0,0-1.67-.33c-1-.13-2-0.19-2.93-0.35a2.29,2.29,0,0,1-2-2,2.61,2.61,0,0,1,1.21-2.89,6,6,0,0,1,3.93-.74,8.67,8.67,0,0,1,2.81.87,0.79,0.79,0,0,0,1,.07A0.61,0.61,0,0,1,74.57,21.81Z"/><path d="M158.07,21h3.42a0.8,0.8,0,0,1-.2.3,0.57,0.57,0,0,0-.37.64c0,1.59,0,3.18,0,4.77a1.78,1.78,0,0,0,1.83,2,5.52,5.52,0,0,0,2-.13c1-.23,1.3-0.76,1.32-2,0-1.56,0-3.13,0-4.69a0.58,0.58,0,0,0-.39-0.64l-0.28-.1,0.12-.17h3.22a1.12,1.12,0,0,1-.24.27,0.62,0.62,0,0,0-.35.62c0,1.65,0,3.3,0,4.95a5.86,5.86,0,0,1-.2,1.48,2.84,2.84,0,0,1-2.4,2,9.38,9.38,0,0,1-5-.2,2.45,2.45,0,0,1-1.83-2.34c-0.08-1.87-.07-3.75-0.09-5.63a0.75,0.75,0,0,0-.45-0.91A0.68,0.68,0,0,1,158.07,21Z"/><path d="M157.27,20.44v2.69l-0.09.09a1,1,0,0,0-1.31-.62h-2.2c0,1,0,1.91,0,2.84,0,1.32,0,2.64,0,4a0.72,0.72,0,0,0,.55.8l0,0.11h-3.32a0.69,0.69,0,0,1,.19-0.21,0.6,0.6,0,0,0,.37-0.65c0-2.12,0-4.24,0-6.36,0-.12,0-0.25,0-0.44-0.94,0-1.85,0-2.76,0a2.22,2.22,0,0,0-.79.47V20.37a0.73,0.73,0,0,1,.22.19,0.62,0.62,0,0,0,.69.38h7.61a0.6,0.6,0,0,0,.68-0.38,1.77,1.77,0,0,0,0-.3Z"/><path d="M179,20.44v2.69l-0.08.08c-0.25-.77-0.85-0.61-1.38-0.61h-2.14c0,0.26,0,.5,0,0.73,0,2.05,0,4.1,0,6.15a2.37,2.37,0,0,0,.4.82h-3.21a0.36,0.36,0,0,1,.07-0.19,0.75,0.75,0,0,0,.44-0.87c0-2,0-4,0-6.07,0-.16,0-0.31,0-0.55-1,0-1.91,0-2.84,0a1.92,1.92,0,0,0-.7.46V20.41a0.33,0.33,0,0,1,.16.05,0.71,0.71,0,0,0,.88.47h7.32a0.71,0.71,0,0,0,.86-0.45,0.16,0.16,0,0,1,.09-0.07A0.26,0.26,0,0,1,179,20.44Z"/><path d="M190.58,23.09V20.42a0.31,0.31,0,0,1,.14,0,0.85,0.85,0,0,0,1,.49h7.18a0.72,0.72,0,0,0,.89-0.47,0.42,0.42,0,0,1,.19-0.07v2.68a1.34,1.34,0,0,0-1.32-.5H196.4c0,0.66,0,1.26,0,1.85,0,1.52,0,3,0,4.56a1.18,1.18,0,0,0,.59,1.31h-3.39a3,3,0,0,0,.2-0.25,1.53,1.53,0,0,0,.36-0.62c0-2.21,0-4.42,0-6.62a1.08,1.08,0,0,0-.06-0.2c-0.92,0-1.87,0-2.8,0A2,2,0,0,0,190.58,23.09Z"/><path d="M139.33,30.32h-3.24a0.49,0.49,0,0,1,0-.1c0.67-.29.54-0.88,0.54-1.43q0-2.82,0-5.63c0-.15,0-0.31,0-0.54-1,0-2,0-2.91,0a1.81,1.81,0,0,0-.66.48V20.43h0.07a1.18,1.18,0,0,0,1.35.52h6.92a0.73,0.73,0,0,0,.88-0.48,0.4,0.4,0,0,1,.17-0.06v2.73a1.12,1.12,0,0,0-1.21-.54c-0.67,0-1.35,0-2,0a0.3,0.3,0,0,0-.38.36c0,2.18,0,4.36,0,6.53A2.3,2.3,0,0,0,139.33,30.32Z"/><path d="M104.77,18.87H108a0.71,0.71,0,0,1,.26.14,0.67,0.67,0,0,1-.17.21,0.69,0.69,0,0,0-.36.72q0,4,0,8c0,0.33,0,.66,0,1,0,0.5-.12,1,0.62,1.22l-0.09.12h-3.55l0.18-.26a1.57,1.57,0,0,0,.35-0.62q0-4.79,0-9.59a1.43,1.43,0,0,0-.32-0.59,3,3,0,0,0-.22-0.28Z"/><path d="M146.88,20.94a1.16,1.16,0,0,1-.24.33,0.66,0.66,0,0,0-.36.67c0,2.51,0,5,0,7.53a2.38,2.38,0,0,0,.42.84h-3.22a0.28,0.28,0,0,1,0-.11,1.12,1.12,0,0,0,.53-1.31q0-3.4,0-6.8a0.7,0.7,0,0,0-.43-0.84,0.45,0.45,0,0,1-.12-0.2,0.55,0.55,0,0,1,.21-0.11h3.2Z"/></svg>